<svg width="112" height="47" viewBox="0 0 112 47" fill="none" xmlns="http://www.w3.org/2000/svg">
<path d="M73.5989 17.0093C68.0062 17.0093 62.3624 19.4744 62.3624 24.9764C62.3624 27.5581 63.5947 29.67 65.9062 31.0865C67.8567 32.2735 70.5291 32.9326 73.4275 32.9326C75.2723 32.9326 77.0661 32.6995 78.9765 32.0623L77.9265 29.4624C76.6833 29.7574 75.6004 29.8521 74.6671 29.8521C70.1281 29.8521 67.5176 28.0788 67.5176 24.9764C67.5176 21.8777 70.2557 20.0279 74.6562 20.0279C75.5275 20.0279 76.3551 20.1116 77.4161 20.3447L78.9947 17.8723C77.077 17.0857 75.3161 17.0093 73.5952 17.0093M50.4952 17.0093C45.5952 17.0093 40.3234 19.4963 40.3234 24.9545C40.3234 30.4165 45.5952 32.9435 50.4952 32.9435C55.3952 32.9435 60.6708 30.4456 60.6708 24.9545C60.6708 19.4635 55.3952 17.0093 50.4952 17.0093ZM50.4952 30.1397C47.5348 30.1397 45.4786 28.0023 45.4786 24.9545C45.4786 21.9032 47.4947 19.7584 50.4952 19.7584C53.4994 19.7584 55.5119 21.8522 55.5119 24.9545C55.5119 28.0569 53.4447 30.1397 50.4952 30.1397ZM88.1531 17.0093C85.9036 17.0093 83.7598 17.3115 81.3973 17.9669V32.6886H86.4614V19.9842C87.0228 19.9005 87.5515 19.8568 88.04 19.8568C89.1848 19.8568 92.9109 20.1116 92.9109 23.4361C92.9109 25.8357 90.727 26.9172 88.5504 26.9172C88.452 26.9172 88.2187 26.9063 88.04 26.899L87.0338 29.0328C88.0072 29.1384 88.5286 29.1711 89.0499 29.1711C93.5343 29.1711 98.0661 27.3104 98.0661 23.1594C98.0661 19.4198 94.001 17.0093 88.1567 17.0093" fill="#27AE60"/>
<path d="M32.4994 30.1543C33.9359 28.9235 36.7796 26.564 35.7661 21.0547C35.7552 20.9928 35.664 20.9965 35.6604 21.0584C35.5145 23.2358 34.3588 24.6122 33.8119 26.3273C33.7973 26.3783 33.7244 26.3673 33.7244 26.3127C33.7427 24.6487 32.3609 23.3633 32.1494 22.3692C32.1348 22.311 32.051 22.311 32.0401 22.3692C31.5114 25.6791 33.0645 27.9112 32.4156 30.0996C32.401 30.1506 32.4593 30.1907 32.4994 30.1543Z" fill="#27AE60"/>
<path d="M34.9092 29.0619C33.1884 31.1265 32.9332 30.9663 31.0738 32.7833C31.0374 32.8233 30.9754 32.776 31.0046 32.7287C32.2405 30.6968 31.5186 29.0583 31.2014 28.3701C31.1759 28.3191 31.103 28.3336 31.0994 28.3883C30.9973 30.4565 29.4697 35.0409 22.2655 37.8447C21.9957 37.9466 21.8681 38.1214 21.89 38.2452C21.89 38.2452 21.89 38.4127 22.2764 38.3945C24.1577 38.3071 31.9707 36.6358 34.9858 29.1092C35.0077 29.0583 34.9421 29.0218 34.9092 29.0619Z" fill="#27AE60"/>
<path d="M20.665 14.7699C19.9358 16.0953 19.0499 18.626 18.8931 19.4271H18.1639C18.1311 19.4271 18.1056 19.4562 18.1092 19.4854C18.1822 20.3775 19.9103 21.6592 20.5884 22.1289C20.6249 22.1544 20.6723 22.1289 20.6723 22.0816L20.767 14.799C20.767 14.7408 20.6941 14.7189 20.665 14.7699Z" fill="#27AE60"/>
<path d="M21.0696 14.7699C21.8024 16.0953 22.6847 18.626 22.8415 19.4271H23.5707C23.6035 19.4271 23.629 19.4562 23.629 19.4854C23.5561 20.3775 21.8243 21.6592 21.1462 22.1289C21.1134 22.1544 21.066 22.1289 21.066 22.0816L20.9712 14.799C20.9712 14.7408 21.0441 14.7189 21.0733 14.7699" fill="#27AE60"/>
<path d="M11.7327 21.5645C12.7681 22.6714 14.8973 24.2954 15.6118 24.6887L15.3858 25.3842C15.3785 25.4169 15.3931 25.4497 15.4259 25.457C16.2936 25.6609 18.0473 24.412 18.7035 23.9095C18.7363 23.884 18.7254 23.833 18.6853 23.8184L11.7947 21.4771C11.7436 21.4625 11.6962 21.5244 11.7363 21.5645" fill="#27AE60"/>
<path d="M11.8603 21.1785C13.3441 20.8945 16.0238 20.8326 16.8332 20.9346L17.0592 20.2391C17.0665 20.2063 17.0993 20.1918 17.1321 20.2027C17.9561 20.545 18.6379 22.5914 18.8749 23.3815C18.8858 23.4216 18.8457 23.458 18.8056 23.4471L11.8566 21.2841C11.8019 21.2696 11.8056 21.1895 11.8603 21.1785Z" fill="#27AE60"/>
<path d="M15.4296 32.1679C16.8004 31.527 19.0025 30.0014 19.5968 29.4442L20.1874 29.8739C20.2129 29.8921 20.2494 29.8848 20.2676 29.8593C20.7306 29.0947 20.0817 27.041 19.8119 26.2618C19.7973 26.2181 19.7426 26.2144 19.7171 26.2508L15.3676 32.0878C15.3312 32.1315 15.3786 32.1934 15.4296 32.1679Z" fill="#27AE60"/>
<path d="M15.1014 31.9312C15.291 30.431 16.0603 27.8603 16.4066 27.1211L15.8124 26.6914C15.7869 26.6732 15.7832 26.6368 15.8014 26.6113C16.3848 25.934 18.5358 25.9158 19.3598 25.934C19.4035 25.934 19.4254 25.985 19.3999 26.0214L15.1999 31.9676C15.1707 32.015 15.0941 31.9895 15.1014 31.9348" fill="#27AE60"/>
<path d="M26.6441 31.9312C26.4545 30.4274 25.6853 27.8603 25.3426 27.1175L25.9332 26.6878C25.9587 26.6696 25.9624 26.6332 25.9441 26.6077C25.3608 25.9304 23.2098 25.9122 22.3821 25.9304C22.3384 25.9304 22.3165 25.9814 22.342 26.0178L26.542 31.9677C26.5749 32.0114 26.6514 31.9859 26.6405 31.9312" fill="#27AE60"/>
<path d="M26.316 32.1679C24.9488 31.527 22.7467 29.9977 22.1488 29.4406L21.5582 29.8703C21.5327 29.8885 21.4962 29.8848 21.478 29.8557C21.015 29.091 21.6639 27.0373 21.9337 26.2581C21.9483 26.2181 22.003 26.2108 22.0285 26.2472L26.3816 32.0842C26.4144 32.1315 26.367 32.1934 26.316 32.1679Z" fill="#27AE60"/>
<path d="M29.8816 21.1785C28.3978 20.8908 25.7181 20.8326 24.9087 20.9309L24.6827 20.2354C24.6754 20.2063 24.6389 20.1881 24.6098 20.199C23.7858 20.5449 23.104 22.5877 22.8671 23.3778C22.8561 23.4215 22.8962 23.4579 22.9363 23.4434L29.8853 21.2841C29.94 21.2659 29.9363 21.1894 29.8816 21.1785Z" fill="#27AE60"/>
<path d="M30.0057 21.5645C28.9739 22.6714 26.8411 24.2954 26.1301 24.6887L26.3562 25.3842C26.3635 25.4169 26.3489 25.4497 26.3161 25.457C25.4484 25.6609 23.6947 24.412 23.0385 23.9095C23.0057 23.884 23.0166 23.833 23.0567 23.8184L29.9473 21.4771C29.9984 21.4625 30.0421 21.5244 30.0057 21.5645Z" fill="#27AE60"/>
<path d="M30.2863 13.7176C29.8379 13.3097 29.1817 13.1095 28.5108 13.0439C28.4525 13.0403 28.3942 13.0221 28.3431 12.9966C27.1655 12.363 25.9077 11.8241 24.6025 11.5292C24.5988 11.5292 24.5843 11.5255 24.5843 11.5255C24.5514 11.5182 24.5223 11.5364 24.515 11.5692C24.5113 11.5983 24.5296 11.6275 24.5587 11.6384C24.5587 11.6384 24.5733 11.6384 24.5806 11.642C25.9587 11.9807 27.3332 12.6106 28.1317 13.2733C28.1863 13.317 28.2264 13.3753 28.2556 13.4408C28.4817 13.9797 28.7332 14.4786 29.1817 14.8901C29.6155 15.287 30.228 15.3525 30.5306 15.0321C30.8332 14.7116 30.7749 14.1654 30.29 13.7176" fill="#27AE60"/>
<path d="M33.017 18.6005L31.6973 16.9182C30.7019 15.6547 30.2462 16.0188 29.4842 16.0589C29.3493 16.0662 29.2181 16.0261 29.1124 15.9424C27.7488 14.8427 26.2176 13.8086 24.1905 13.3789C24.1832 13.3789 24.1686 13.3753 24.1686 13.3753C24.1431 13.368 24.1139 13.3862 24.1103 13.4117C24.103 13.4372 24.1212 13.4627 24.1431 13.4663C24.1431 13.4663 24.2598 13.4991 24.3181 13.5136C25.9587 13.9506 27.3624 14.7408 28.6092 16.0079C30.6947 18.5204 32.0509 18.1963 32.9478 18.677C32.9988 18.7061 33.0535 18.6442 33.017 18.5969" fill="#27AE60"/>
<path d="M33.5202 18.3747C33.3307 17.3224 33.6077 15.4945 32.2843 14.0161C32.2369 13.9542 32.1604 13.8778 32.0838 13.8013C30.2609 11.8387 27.8291 10.4004 24.9744 9.79226C24.7411 9.74492 24.5077 9.70123 24.2671 9.66117C24.2635 9.66117 24.2525 9.65753 24.2525 9.65753C24.227 9.65753 24.2015 9.6721 24.1979 9.69759C24.1942 9.72307 24.2124 9.74856 24.238 9.7522C24.238 9.7522 24.2635 9.75585 24.2744 9.75949C24.5005 9.79954 24.7265 9.84688 24.9489 9.89421C27.5812 10.4914 29.8088 11.7403 31.5588 13.8195C31.6572 13.9397 31.6864 14.0999 31.6354 14.2455C31.4312 14.799 31.2744 15.236 31.7958 16.0006C31.9452 16.2264 33.0062 17.7958 33.4218 18.4112C33.4546 18.4585 33.5275 18.4294 33.5166 18.3747" fill="#27AE60"/>
<path d="M33.9504 21.062C33.9504 21.113 33.8811 21.1275 33.8629 21.0802C33.728 20.7379 33.4545 20.1772 32.9769 19.722C32.3754 19.1431 31.7155 19.0994 31.216 18.6333C31.1759 18.5932 31.1103 18.6296 31.1212 18.6843C31.7446 21.6373 33.5931 21.7611 33.841 23.4288C33.8483 23.4835 33.9249 23.4907 33.9431 23.4361C34.4462 21.8995 36.6191 19.5727 33.892 16.0443C33.8556 15.997 33.779 16.037 33.7972 16.0953C34.4134 17.956 33.9103 19.5873 33.9504 21.062Z" fill="#27AE60"/>
<path d="M9.2426 30.1543C7.80614 28.9235 4.96239 26.564 5.97229 21.0547C5.98322 20.9928 6.07437 20.9965 6.08166 21.0584C6.22385 23.2358 7.37958 24.6122 7.92645 26.3273C7.94104 26.3783 8.01395 26.3673 8.01395 26.3127C7.99572 24.6487 9.37749 23.3633 9.58895 22.3692C9.60718 22.311 9.69104 22.311 9.69833 22.3692C10.2306 25.6791 8.67385 27.9112 9.32281 30.0996C9.33739 30.1506 9.2827 30.1907 9.2426 30.1543Z" fill="#27AE60"/>
<path d="M6.83274 29.0619C8.55357 31.1265 8.80514 30.9663 10.6645 32.7833C10.7046 32.8233 10.7666 32.776 10.7374 32.7287C9.49785 30.6968 10.2197 29.0583 10.5406 28.3701C10.5624 28.3191 10.6353 28.3336 10.639 28.3883C10.7447 30.4565 12.2723 35.0409 19.4728 37.8447C19.7426 37.9466 19.8702 38.1214 19.8484 38.2452C19.8484 38.2452 19.8484 38.4127 19.4619 38.3945C17.5843 38.3071 9.76764 36.6358 6.75253 29.1092C6.7343 29.0583 6.79993 29.0218 6.83274 29.0619Z" fill="#27AE60"/>
<path d="M11.4519 13.7176C11.9004 13.3097 12.5603 13.1095 13.2275 13.0439C13.2894 13.0403 13.3441 13.0221 13.3952 12.9966C14.5728 12.363 15.8342 11.8241 17.1358 11.5292C17.1394 11.5292 17.154 11.5255 17.154 11.5255C17.1832 11.5182 17.216 11.5364 17.2233 11.5692C17.2269 11.5983 17.2087 11.6275 17.1795 11.6384C17.1795 11.6384 17.165 11.6384 17.1577 11.642C15.7795 11.9807 14.4051 12.6106 13.6066 13.2733C13.5519 13.317 13.5118 13.3753 13.4827 13.4408C13.2566 13.9797 13.0051 14.4786 12.5566 14.8901C12.1228 15.287 11.5103 15.3525 11.2077 15.0321C10.9051 14.7116 10.9634 14.1654 11.4483 13.7176" fill="#27AE60"/>
<path d="M8.7249 18.6005L10.0447 16.9182C11.04 15.6547 11.4957 16.0188 12.2541 16.0589C12.389 16.0662 12.5202 16.0261 12.6259 15.9424C13.9895 14.8427 15.5207 13.8086 17.5478 13.3789C17.5551 13.3789 17.5733 13.3753 17.5733 13.3753C17.5989 13.368 17.6244 13.3862 17.628 13.4117C17.6353 13.4372 17.6207 13.4627 17.5952 13.4663C17.5952 13.4663 17.4785 13.4991 17.4202 13.5136C15.7796 13.9506 14.3759 14.7408 13.1291 16.0079C11.0437 18.5204 9.69105 18.1963 8.79053 18.677C8.74313 18.7061 8.68844 18.6442 8.7249 18.5969" fill="#27AE60"/>
<path d="M8.21814 18.3747C8.40772 17.3224 8.13064 15.4945 9.45408 14.0161C9.50512 13.9542 9.57804 13.8778 9.6546 13.8013C11.4812 11.8387 13.9093 10.4004 16.7676 9.79226C17.001 9.74492 17.2343 9.70123 17.4713 9.66117C17.4786 9.66117 17.4895 9.65753 17.4895 9.65753C17.515 9.65753 17.5369 9.6721 17.5405 9.69759C17.5442 9.72307 17.526 9.74856 17.5004 9.7522C17.5004 9.7522 17.4786 9.75585 17.4676 9.75949C17.2379 9.79954 17.0119 9.84688 16.7895 9.89421C14.1572 10.4914 11.9296 11.7403 10.1832 13.8195C10.0848 13.9397 10.0556 14.0999 10.1067 14.2455C10.3108 14.799 10.4676 15.236 9.94627 16.0006C9.79314 16.2264 8.73585 17.7958 8.32022 18.4112C8.28741 18.4585 8.21085 18.4294 8.22179 18.3747" fill="#27AE60"/>
<path d="M7.94098 16.0953C7.96286 16.037 7.8863 15.997 7.84619 16.0443C5.11911 19.5727 7.29203 21.9031 7.79515 23.4398C7.81338 23.4907 7.88994 23.4835 7.89723 23.4288C8.1488 21.7611 9.99723 21.6373 10.617 18.6843C10.628 18.6296 10.5623 18.5932 10.5222 18.6333C10.0228 19.0994 9.3665 19.1394 8.7613 19.722C8.28369 20.1772 8.0139 20.7379 7.87536 21.0802C7.85713 21.1275 7.78786 21.113 7.78786 21.062C7.82796 19.5873 7.32484 17.956 7.94098 16.0953Z" fill="#27AE60"/>
</svg>
