<svg width="14" height="14" viewBox="0 0 14 14" fill="none" xmlns="http://www.w3.org/2000/svg">
<g clip-path="url(#clip0_18_75)">
<path d="M1.75 3.5H2.91667H12.25" stroke="#E74C3C" stroke-width="2" stroke-linecap="round" stroke-linejoin="round"/>
<path d="M11.0833 3.50002V11.6667C11.0833 11.9761 10.9604 12.2729 10.7416 12.4916C10.5228 12.7104 10.226 12.8334 9.91663 12.8334H4.08329C3.77387 12.8334 3.47713 12.7104 3.25833 12.4916C3.03954 12.2729 2.91663 11.9761 2.91663 11.6667V3.50002M4.66663 3.50002V2.33335C4.66663 2.02393 4.78954 1.72719 5.00833 1.5084C5.22713 1.2896 5.52387 1.16669 5.83329 1.16669H8.16663C8.47605 1.16669 8.77279 1.2896 8.99158 1.5084C9.21038 1.72719 9.33329 2.02393 9.33329 2.33335V3.50002" stroke="#E74C3C" stroke-width="2" stroke-linecap="round" stroke-linejoin="round"/>
</g>
<defs>
<clipPath id="clip0_18_75">
<rect width="14" height="14" fill="white"/>
</clipPath>
</defs>
</svg>
